name rise30.9205peak61.366fall85.3838.mot
datacolumns 19
datarows 36
range 0.91832900000000 0.97666000000000
endheader
time	ground_force1_vx	ground_force1_vy	ground_force1_vz	ground_force1_px	ground_force1_py	ground_force1_pz	ground_force2_vx	ground_force2_vy	ground_force2_vz	ground_force2_px	ground_force2_py	ground_force2_pz	ground_torque1_x	ground_torque1_y	ground_torque1_z	ground_torque2_x	ground_torque2_y	ground_torque2_z	
0.91832900000000	73.69179800000001	782.82657500000005	55.15574800000000	0.36367300000000	0.00000000000000	0.09663600000000	0.00000000000000	0.00000000000000	0.00000000000000	0.00000000000000	0.00000000000000	0.00000000000000	0.00000000000000	25.38403900000000	0.00000000000000	0.00000000000000	0.00000000000000	0.00000000000000	
0.92000700000000	72.94828300000000	784.23797300000001	55.21556300000000	0.36262400000000	0.00000000000000	0.09667600000000	0.00000000000000	0.00000000000000	0.00000000000000	0.00000000000000	0.00000000000000	0.00000000000000	0.00000000000000	25.42841200000000	0.00000000000000	0.00000000000000	0.00000000000000	0.00000000000000	
0.92166700000000	72.20292700000000	785.52958699999999	55.27244100000000	0.36158300000000	0.00000000000000	0.09671700000000	0.00000000000000	0.00000000000000	0.00000000000000	0.00000000000000	0.00000000000000	0.00000000000000	0.00000000000000	25.47234700000000	0.00000000000000	0.00000000000000	0.00000000000000	0.00000000000000	
0.92332900000000	71.45659400000000	786.70223199999998	55.32595600000000	0.36055000000000	0.00000000000000	0.09675900000000	0.00000000000000	0.00000000000000	0.00000000000000	0.00000000000000	0.00000000000000	0.00000000000000	0.00000000000000	25.51548300000000	0.00000000000000	0.00000000000000	0.00000000000000	0.00000000000000	
0.92499400000000	70.71008700000000	787.75681299999997	55.37564000000000	0.35952500000000	0.00000000000000	0.09680300000000	0.00000000000000	0.00000000000000	0.00000000000000	0.00000000000000	0.00000000000000	0.00000000000000	0.00000000000000	25.55743800000000	0.00000000000000	0.00000000000000	0.00000000000000	0.00000000000000	
0.92666200000000	69.96415100000000	788.69433400000003	55.42099000000000	0.35850800000000	0.00000000000000	0.09684800000000	0.00000000000000	0.00000000000000	0.00000000000000	0.00000000000000	0.00000000000000	0.00000000000000	0.00000000000000	25.59780400000000	0.00000000000000	0.00000000000000	0.00000000000000	0.00000000000000	
0.92832800000000	69.21947500000000	789.51589400000000	55.46147100000000	0.35749900000000	0.00000000000000	0.09689400000000	0.00000000000000	0.00000000000000	0.00000000000000	0.00000000000000	0.00000000000000	0.00000000000000	0.00000000000000	25.63616000000000	0.00000000000000	0.00000000000000	0.00000000000000	0.00000000000000	
0.93000800000000	68.47669000000000	790.22269600000004	55.49652500000000	0.35649600000000	0.00000000000000	0.09694100000000	0.00000000000000	0.00000000000000	0.00000000000000	0.00000000000000	0.00000000000000	0.00000000000000	0.00000000000000	25.67206900000000	0.00000000000000	0.00000000000000	0.00000000000000	0.00000000000000	
0.93166900000000	67.73637500000000	790.81604200000004	55.52557600000000	0.35549900000000	0.00000000000000	0.09698900000000	0.00000000000000	0.00000000000000	0.00000000000000	0.00000000000000	0.00000000000000	0.00000000000000	0.00000000000000	25.70508800000000	0.00000000000000	0.00000000000000	0.00000000000000	0.00000000000000	
0.93333300000000	66.99905300000000	791.29734299999996	55.54803900000000	0.35450800000000	0.00000000000000	0.09703800000000	0.00000000000000	0.00000000000000	0.00000000000000	0.00000000000000	0.00000000000000	0.00000000000000	0.00000000000000	25.73476600000000	0.00000000000000	0.00000000000000	0.00000000000000	0.00000000000000	
0.93499900000000	66.26519800000000	791.66811299999995	55.56331900000000	0.35352300000000	0.00000000000000	0.09708800000000	0.00000000000000	0.00000000000000	0.00000000000000	0.00000000000000	0.00000000000000	0.00000000000000	0.00000000000000	25.76065600000000	0.00000000000000	0.00000000000000	0.00000000000000	0.00000000000000	
0.93666900000000	65.53523300000001	791.92997600000001	55.57082400000000	0.35254200000000	0.00000000000000	0.09713800000000	0.00000000000000	0.00000000000000	0.00000000000000	0.00000000000000	0.00000000000000	0.00000000000000	0.00000000000000	25.78231000000000	0.00000000000000	0.00000000000000	0.00000000000000	0.00000000000000	
0.93833400000000	64.80953200000000	792.08466199999998	55.56997100000000	0.35156500000000	0.00000000000000	0.09718800000000	0.00000000000000	0.00000000000000	0.00000000000000	0.00000000000000	0.00000000000000	0.00000000000000	0.00000000000000	25.79929100000000	0.00000000000000	0.00000000000000	0.00000000000000	0.00000000000000	
0.94001300000000	64.08842600000000	792.13400999999999	55.56018400000000	0.35059100000000	0.00000000000000	0.09723900000000	0.00000000000000	0.00000000000000	0.00000000000000	0.00000000000000	0.00000000000000	0.00000000000000	0.00000000000000	25.81117100000000	0.00000000000000	0.00000000000000	0.00000000000000	0.00000000000000	
0.94166200000000	63.37220200000000	792.07996700000001	55.54091000000000	0.34962000000000	0.00000000000000	0.09729100000000	0.00000000000000	0.00000000000000	0.00000000000000	0.00000000000000	0.00000000000000	0.00000000000000	0.00000000000000	25.81753800000000	0.00000000000000	0.00000000000000	0.00000000000000	0.00000000000000	
0.94333400000000	62.66110400000000	791.92458699999997	55.51161600000000	0.34865200000000	0.00000000000000	0.09734200000000	0.00000000000000	0.00000000000000	0.00000000000000	0.00000000000000	0.00000000000000	0.00000000000000	0.00000000000000	25.81799700000000	0.00000000000000	0.00000000000000	0.00000000000000	0.00000000000000	
0.94501000000000	61.95534000000000	791.67003000000000	55.47179800000000	0.34768400000000	0.00000000000000	0.09739400000000	0.00000000000000	0.00000000000000	0.00000000000000	0.00000000000000	0.00000000000000	0.00000000000000	0.00000000000000	25.81217700000000	0.00000000000000	0.00000000000000	0.00000000000000	0.00000000000000	
0.94666800000000	61.25507800000000	791.31856100000005	55.42098400000000	0.34671700000000	0.00000000000000	0.09744600000000	0.00000000000000	0.00000000000000	0.00000000000000	0.00000000000000	0.00000000000000	0.00000000000000	0.00000000000000	25.79972700000000	0.00000000000000	0.00000000000000	0.00000000000000	0.00000000000000	
0.94833400000000	60.56045400000000	790.87254800000005	55.35874000000000	0.34575000000000	0.00000000000000	0.09749700000000	0.00000000000000	0.00000000000000	0.00000000000000	0.00000000000000	0.00000000000000	0.00000000000000	0.00000000000000	25.78032600000000	0.00000000000000	0.00000000000000	0.00000000000000	0.00000000000000	
0.95000500000000	59.87157400000000	790.33446000000004	55.28467300000000	0.34478200000000	0.00000000000000	0.09754900000000	0.00000000000000	0.00000000000000	0.00000000000000	0.00000000000000	0.00000000000000	0.00000000000000	0.00000000000000	25.75368100000000	0.00000000000000	0.00000000000000	0.00000000000000	0.00000000000000	
0.95166900000000	59.18851100000000	789.70686300000000	55.19843400000000	0.34381300000000	0.00000000000000	0.09760000000000	0.00000000000000	0.00000000000000	0.00000000000000	0.00000000000000	0.00000000000000	0.00000000000000	0.00000000000000	25.71953200000000	0.00000000000000	0.00000000000000	0.00000000000000	0.00000000000000	
0.95333100000000	58.51131300000000	788.99241800000004	55.09972300000000	0.34284100000000	0.00000000000000	0.09765100000000	0.00000000000000	0.00000000000000	0.00000000000000	0.00000000000000	0.00000000000000	0.00000000000000	0.00000000000000	25.67765100000000	0.00000000000000	0.00000000000000	0.00000000000000	0.00000000000000	
0.95500900000000	57.84000500000000	788.19387800000004	54.98828800000000	0.34186600000000	0.00000000000000	0.09770200000000	0.00000000000000	0.00000000000000	0.00000000000000	0.00000000000000	0.00000000000000	0.00000000000000	0.00000000000000	25.62784600000000	0.00000000000000	0.00000000000000	0.00000000000000	0.00000000000000	
0.95666700000000	57.17458700000000	787.31408299999998	54.86393200000000	0.34088800000000	0.00000000000000	0.09775200000000	0.00000000000000	0.00000000000000	0.00000000000000	0.00000000000000	0.00000000000000	0.00000000000000	0.00000000000000	25.56996200000000	0.00000000000000	0.00000000000000	0.00000000000000	0.00000000000000	
0.95832900000000	56.51504200000000	786.35595599999999	54.72651300000000	0.33990600000000	0.00000000000000	0.09780200000000	0.00000000000000	0.00000000000000	0.00000000000000	0.00000000000000	0.00000000000000	0.00000000000000	0.00000000000000	25.50388100000000	0.00000000000000	0.00000000000000	0.00000000000000	0.00000000000000	
0.96000400000000	55.86133500000000	785.32250099999999	54.57594400000000	0.33891800000000	0.00000000000000	0.09785100000000	0.00000000000000	0.00000000000000	0.00000000000000	0.00000000000000	0.00000000000000	0.00000000000000	0.00000000000000	25.42952200000000	0.00000000000000	0.00000000000000	0.00000000000000	0.00000000000000	
0.96166800000000	55.21341500000000	784.21679400000005	54.41219600000000	0.33792500000000	0.00000000000000	0.09790000000000	0.00000000000000	0.00000000000000	0.00000000000000	0.00000000000000	0.00000000000000	0.00000000000000	0.00000000000000	25.34684600000000	0.00000000000000	0.00000000000000	0.00000000000000	0.00000000000000	
0.96333200000000	54.57121800000000	783.04198099999996	54.23529700000000	0.33692600000000	0.00000000000000	0.09794800000000	0.00000000000000	0.00000000000000	0.00000000000000	0.00000000000000	0.00000000000000	0.00000000000000	0.00000000000000	25.25585100000000	0.00000000000000	0.00000000000000	0.00000000000000	0.00000000000000	
0.96499900000000	53.93467100000000	781.80127300000004	54.04533500000000	0.33592000000000	0.00000000000000	0.09799600000000	0.00000000000000	0.00000000000000	0.00000000000000	0.00000000000000	0.00000000000000	0.00000000000000	0.00000000000000	25.15657400000000	0.00000000000000	0.00000000000000	0.00000000000000	0.00000000000000	
0.96666200000000	53.30368900000000	780.49793899999997	53.84245400000000	0.33490700000000	0.00000000000000	0.09804200000000	0.00000000000000	0.00000000000000	0.00000000000000	0.00000000000000	0.00000000000000	0.00000000000000	0.00000000000000	25.04909200000000	0.00000000000000	0.00000000000000	0.00000000000000	0.00000000000000	
0.96832800000000	52.67818400000000	779.13529900000003	53.62685600000000	0.33388600000000	0.00000000000000	0.09808800000000	0.00000000000000	0.00000000000000	0.00000000000000	0.00000000000000	0.00000000000000	0.00000000000000	0.00000000000000	24.93352000000000	0.00000000000000	0.00000000000000	0.00000000000000	0.00000000000000	
0.97000800000000	52.05806000000000	777.71672200000000	53.39879800000000	0.33285700000000	0.00000000000000	0.09813400000000	0.00000000000000	0.00000000000000	0.00000000000000	0.00000000000000	0.00000000000000	0.00000000000000	0.00000000000000	24.81000800000000	0.00000000000000	0.00000000000000	0.00000000000000	0.00000000000000	
0.97166400000000	51.44321800000000	776.24561700000004	53.15859100000000	0.33181900000000	0.00000000000000	0.09817800000000	0.00000000000000	0.00000000000000	0.00000000000000	0.00000000000000	0.00000000000000	0.00000000000000	0.00000000000000	24.67874400000000	0.00000000000000	0.00000000000000	0.00000000000000	0.00000000000000	
0.97333100000000	50.83355900000000	774.72542799999997	52.90660200000000	0.33077300000000	0.00000000000000	0.09822200000000	0.00000000000000	0.00000000000000	0.00000000000000	0.00000000000000	0.00000000000000	0.00000000000000	0.00000000000000	24.53995100000000	0.00000000000000	0.00000000000000	0.00000000000000	0.00000000000000	
0.97500100000000	50.22898300000000	773.15962700000000	52.64324600000000	0.32971700000000	0.00000000000000	0.09826500000000	0.00000000000000	0.00000000000000	0.00000000000000	0.00000000000000	0.00000000000000	0.00000000000000	0.00000000000000	24.39388400000000	0.00000000000000	0.00000000000000	0.00000000000000	0.00000000000000	
0.97666000000000	49.62939200000000	771.55170799999996	52.36898500000000	0.32865200000000	0.00000000000000	0.09830700000000	0.00000000000000	0.00000000000000	0.00000000000000	0.00000000000000	0.00000000000000	0.00000000000000	0.00000000000000	24.24082800000000	0.00000000000000	0.00000000000000	0.00000000000000	0.00000000000000	
